<svg width="48" height="48" viewBox="0 0 48 48" fill="none" xmlns="http://www.w3.org/2000/svg">
<rect x="0.5" y="0.5" width="47" height="47" rx="23.5" fill="#E6F0FF"/>
<path d="M36.3333 22H11.6665C11.1142 22 10.6665 22.4477 10.6665 23V40C10.6665 40.5523 11.1142 41 11.6665 41H36.3333C36.8856 41 37.3333 40.5523 37.3333 40V23C37.3333 22.4477 36.8856 22 36.3333 22Z" fill="url(#paint0_linear_1590_77087)"/>
<path d="M10.6667 26.0963C9.95943 26.0963 9.28115 25.8222 8.78105 25.3341C8.28095 24.8461 8 24.1841 8 23.4939V22.6265H13.3334V23.4939C13.3334 24.1841 13.0524 24.8461 12.5523 25.3341C12.0522 25.8222 11.3739 26.0963 10.6667 26.0963ZM16 26.0963C15.2928 26.0963 14.6145 25.8222 14.1144 25.3341C13.6143 24.8461 13.3334 24.1841 13.3334 23.4939V22.6265H18.6667V23.4939C18.6667 24.1841 18.3858 24.8461 17.8857 25.3341C17.3856 25.8222 16.7073 26.0963 16 26.0963ZM21.3334 26.0963C20.6262 26.0963 19.9479 25.8222 19.4478 25.3341C18.9477 24.8461 18.6667 24.1841 18.6667 23.4939V22.6265H24.0001V23.4939C24.0001 24.1841 23.7191 24.8461 23.219 25.3341C22.7189 25.8222 22.0407 26.0963 21.3334 26.0963ZM26.6668 26.0963C25.9595 26.0963 25.2812 25.8222 24.7811 25.3341C24.281 24.8461 24.0001 24.1841 24.0001 23.4939V22.6265H29.3335V23.4939C29.3335 24.1841 29.0525 24.8461 28.5524 25.3341C28.0523 25.8222 27.374 26.0963 26.6668 26.0963ZM32.0001 26.0963C31.2929 26.0963 30.6146 25.8222 30.1145 25.3341C29.6144 24.8461 29.3335 24.1841 29.3335 23.4939V22.6265H34.6668V23.4939C34.6668 24.1841 34.3859 24.8461 33.8858 25.3341C33.3857 25.8222 32.7074 26.0963 32.0001 26.0963ZM37.3335 26.0963C36.6262 26.0963 35.948 25.8222 35.4479 25.3341C34.9478 24.8461 34.6668 24.1841 34.6668 23.4939V22.6265H40.0002V23.4939C40.0002 24.1841 39.7192 24.8461 39.2191 25.3341C38.719 25.8222 38.0407 26.0963 37.3335 26.0963Z" fill="#3A84F1"/>
<path d="M40.0002 22.6262H8L12.8889 12.2166H35.1113L40.0002 22.6262Z" fill="url(#paint1_linear_1590_77087)"/>
<path d="M24.0007 17.8553C27.6826 17.8553 30.6674 14.9425 30.6674 11.3493C30.6674 7.75611 27.6826 4.84326 24.0007 4.84326C20.3188 4.84326 17.334 7.75611 17.334 11.3493C17.334 14.9425 20.3188 17.8553 24.0007 17.8553Z" fill="#F60B8A"/>
<path d="M27.1116 10.0482H25.3339V8.31327C25.3339 8.0832 25.2402 7.86256 25.0735 7.69988C24.9068 7.53719 24.6807 7.4458 24.445 7.4458H23.5561C23.3203 7.4458 23.0942 7.53719 22.9275 7.69988C22.7608 7.86256 22.6672 8.0832 22.6672 8.31327V10.0482H20.8894C20.6536 10.0482 20.4275 10.1396 20.2608 10.3023C20.0941 10.465 20.0005 10.6856 20.0005 10.9157V11.7831C20.0005 12.0132 20.0941 12.2339 20.2608 12.3965C20.4275 12.5592 20.6536 12.6506 20.8894 12.6506H22.6672V14.3856C22.6672 14.6156 22.7608 14.8363 22.9275 14.9989C23.0942 15.1616 23.3203 15.253 23.5561 15.253H24.445C24.6807 15.253 24.9068 15.1616 25.0735 14.9989C25.2402 14.8363 25.3339 14.6156 25.3339 14.3856V12.6506H27.1116C27.3474 12.6506 27.5735 12.5592 27.7402 12.3965C27.9069 12.2339 28.0005 12.0132 28.0005 11.7831V10.9157C28.0005 10.6856 27.9069 10.465 27.7402 10.3023C27.5735 10.1396 27.3474 10.0482 27.1116 10.0482Z" fill="white"/>
<path d="M33.5557 29H24.6667C24.1758 29 23.7778 29.3884 23.7778 29.8675V36.8072C23.7778 37.2863 24.1758 37.6747 24.6667 37.6747H33.5557C34.0466 37.6747 34.4446 37.2863 34.4446 36.8072V29.8675C34.4446 29.3884 34.0466 29 33.5557 29Z" fill="white"/>
<path d="M30.0534 34.2564L28.1689 32.4174L29.1112 31.4979C29.2332 31.37 29.3804 31.2675 29.544 31.1964C29.7076 31.1253 29.8841 31.087 30.0631 31.0839C30.2422 31.0809 30.42 31.113 30.586 31.1784C30.752 31.2439 30.9029 31.3413 31.0295 31.4649C31.1561 31.5884 31.2559 31.7356 31.323 31.8976C31.39 32.0596 31.423 32.2332 31.4198 32.4079C31.4166 32.5826 31.3774 32.7549 31.3046 32.9145C31.2317 33.0741 31.1266 33.2178 30.9956 33.3369L30.0534 34.2564Z" fill="#F60B8A"/>
<path d="M27.2269 35.176C26.9772 34.9321 26.8369 34.6013 26.8369 34.2565C26.8369 33.9117 26.9772 33.581 27.2269 33.337L28.1691 32.4175L30.0535 34.2565L29.1113 35.176C28.8613 35.4197 28.5224 35.5566 28.1691 35.5566C27.8157 35.5566 27.4769 35.4197 27.2269 35.176Z" fill="#FFC20A"/>
<path d="M20.125 29H14.875C14.6429 29 14.4204 29.081 14.2563 29.2253C14.0922 29.3696 14 29.5652 14 29.7692V39.2308C14 39.4348 14.0922 39.6304 14.2563 39.7747C14.4204 39.919 14.6429 40 14.875 40H20.125C20.3571 40 20.5796 39.919 20.7437 39.7747C20.9078 39.6304 21 39.4348 21 39.2308V29.7692C21 29.5652 20.9078 29.3696 20.7437 29.2253C20.5796 29.081 20.3571 29 20.125 29Z" fill="white"/>
<path d="M19.3331 36.0723C19.5786 36.0723 19.7776 35.8781 19.7776 35.6386C19.7776 35.399 19.5786 35.2048 19.3331 35.2048C19.0877 35.2048 18.8887 35.399 18.8887 35.6386C18.8887 35.8781 19.0877 36.0723 19.3331 36.0723Z" fill="url(#paint2_linear_1590_77087)"/>
<rect x="0.5" y="0.5" width="47" height="47" rx="23.5" stroke="#CCE1FF"/>
<defs>
<linearGradient id="paint0_linear_1590_77087" x1="23.9999" y1="22" x2="23.9999" y2="41" gradientUnits="userSpaceOnUse">
<stop stop-color="#81B4FF"/>
<stop offset="1" stop-color="#4F96FF"/>
</linearGradient>
<linearGradient id="paint1_linear_1590_77087" x1="24.0001" y1="12.2166" x2="24.0001" y2="22.6262" gradientUnits="userSpaceOnUse">
<stop stop-color="#81B4FF"/>
<stop offset="1" stop-color="#4F96FF"/>
</linearGradient>
<linearGradient id="paint2_linear_1590_77087" x1="19.3331" y1="35.2048" x2="19.3331" y2="36.0723" gradientUnits="userSpaceOnUse">
<stop stop-color="#81B4FF"/>
<stop offset="1" stop-color="#4F96FF"/>
</linearGradient>
</defs>
</svg>
