<svg xmlns="http://www.w3.org/2000/svg" width="86" height="18" viewBox="0 0 67 14" fill="none"><path d="M4.88717 0L0 14H62.1124L67 0H4.88717Z" fill="#F60B8A"></path><path d="M16.9388 6.66923L15.8556 5.18555C15.8199 5.13824 15.7754 5.10056 15.7254 5.07522C15.6753 5.04988 15.6209 5.03753 15.5662 5.03906H14.268L14.4404 3.88521C14.472 3.67262 14.3461 3.5 14.159 3.5H7.46816C7.28102 3.5 7.1035 3.67262 7.07169 3.88521L6.28622 9.12207C6.25421 9.33511 6.38008 9.50773 6.56722 9.50773H6.97567C7.03402 9.50558 7.09041 9.4833 7.13737 9.44386C7.18433 9.40441 7.21964 9.34967 7.2386 9.28687C7.4283 8.63927 7.9954 8.14687 8.58981 8.14687C9.18421 8.14687 9.60365 8.64039 9.59953 9.28687C9.59878 9.31632 9.60337 9.34562 9.613 9.37296C9.62263 9.40031 9.6371 9.4251 9.65552 9.44582C9.67394 9.46653 9.6959 9.48271 9.72005 9.49337C9.7442 9.50402 9.77002 9.50891 9.7959 9.50773H13.4658C13.5135 9.50564 13.5595 9.48675 13.5973 9.45367C13.6352 9.42058 13.6631 9.37494 13.6771 9.32305C13.8556 8.65892 14.4323 8.14687 15.0377 8.14687C15.6431 8.14687 16.0673 8.65892 16.0474 9.32305C16.0459 9.34724 16.0489 9.37152 16.0562 9.39431C16.0634 9.41711 16.0749 9.4379 16.0897 9.45533C16.1045 9.47275 16.1224 9.48643 16.1422 9.49546C16.162 9.50449 16.1832 9.50867 16.2045 9.50773C16.4476 9.50773 16.678 9.28442 16.719 9.00729L17.0148 7.02295C17.0254 6.96125 17.0241 6.89765 17.011 6.83657C16.9979 6.77549 16.9732 6.71839 16.9388 6.66923ZM16.3039 6.6891H14.4384C14.4253 6.68959 14.4122 6.68666 14.4002 6.68053C14.3882 6.67439 14.3776 6.66522 14.3692 6.65371C14.3608 6.64221 14.3549 6.62866 14.3518 6.61413C14.3487 6.59959 14.3486 6.58445 14.3514 6.56985L14.5124 5.49216C14.5179 5.45942 14.5331 5.42979 14.5553 5.40812C14.5776 5.38645 14.6057 5.37404 14.635 5.37291H15.5579C15.571 5.37258 15.584 5.37556 15.5959 5.38162C15.6079 5.38768 15.6185 5.39668 15.627 5.40797L16.4074 6.48589C16.463 6.56114 16.397 6.6891 16.3039 6.6891Z" fill="white"></path><path d="M15.0045 8.37378C14.4547 8.37378 13.9322 8.88137 13.8385 9.50775C13.7448 10.1341 14.1156 10.6422 14.6662 10.6422C15.2168 10.6422 15.7388 10.1341 15.8322 9.50775C15.9257 8.88137 15.555 8.37378 15.0045 8.37378ZM14.7628 9.99345C14.5272 9.99345 14.3685 9.77617 14.4093 9.50775C14.4502 9.23933 14.6721 9.02294 14.9077 9.02294C15.1434 9.02294 15.3022 9.24022 15.2612 9.50842C15.2202 9.77662 14.9986 9.99345 14.7628 9.99345Z" fill="white"></path><path d="M8.55586 8.37378C8.00603 8.37378 7.48311 8.88137 7.38924 9.50775C7.29538 10.1341 7.66553 10.6422 8.21615 10.6422C8.76676 10.6422 9.2891 10.1341 9.38277 9.50775C9.47643 8.88137 9.10569 8.37378 8.55586 8.37378ZM8.31335 9.99345C8.07771 9.99345 7.91904 9.77617 7.95989 9.50775C8.00073 9.23933 8.22302 9.02294 8.45886 9.02294C8.6947 9.02294 8.85316 9.24022 8.81232 9.50842C8.77148 9.77662 8.54899 9.99345 8.31335 9.99345Z" fill="white"></path><path d="M21.048 6.92H23.744L23.528 7.96H20.84L21.048 6.92ZM20.536 10H19.232L20.352 4.4H24.584L24.368 5.44H21.44L20.536 10ZM24.3414 10L25.4614 4.4H27.7414C28.44 4.4 28.9787 4.552 29.3574 4.856C29.7414 5.16 29.9334 5.58667 29.9334 6.136C29.9334 6.60533 29.8214 7.01333 29.5974 7.36C29.3787 7.70133 29.064 7.96533 28.6534 8.152C28.248 8.33867 27.768 8.432 27.2134 8.432H25.3894L26.0694 7.864L25.6454 10H24.3414ZM27.9414 10L26.7974 7.968H28.1574L29.3094 10H27.9414ZM26.0374 8.016L25.5894 7.4H27.2614C27.6934 7.4 28.0267 7.304 28.2614 7.112C28.5014 6.91467 28.6214 6.62933 28.6214 6.256C28.6214 5.984 28.528 5.784 28.3414 5.656C28.16 5.52267 27.904 5.456 27.5734 5.456H25.9974L26.6774 4.824L26.0374 8.016ZM32.0882 6.656H34.7842L34.5842 7.664H31.8882L32.0882 6.656ZM31.7202 8.96H34.7762L34.5602 10H30.2242L31.3442 4.4H35.5762L35.3602 5.44H32.4242L31.7202 8.96ZM37.4554 6.656H40.1514L39.9514 7.664H37.2554L37.4554 6.656ZM37.0874 8.96H40.1434L39.9274 10H35.5914L36.7114 4.4H40.9434L40.7274 5.44H37.7914L37.0874 8.96ZM42.9106 10.096C42.6066 10.096 42.3106 10.0667 42.0226 10.008C41.7399 9.95467 41.4812 9.88 41.2466 9.784C41.0172 9.688 40.8226 9.584 40.6626 9.472L41.1906 8.472C41.3666 8.59467 41.5532 8.70133 41.7506 8.792C41.9532 8.87733 42.1639 8.944 42.3826 8.992C42.6012 9.03467 42.8199 9.056 43.0386 9.056C43.2786 9.056 43.4839 9.02933 43.6546 8.976C43.8306 8.92267 43.9639 8.848 44.0546 8.752C44.1506 8.656 44.1986 8.53867 44.1986 8.4C44.1986 8.272 44.1479 8.168 44.0466 8.088C43.9452 8.008 43.8119 7.94133 43.6466 7.888C43.4866 7.82933 43.3079 7.77333 43.1106 7.72C42.9132 7.66667 42.7132 7.60533 42.5106 7.536C42.3132 7.46133 42.1319 7.37067 41.9666 7.264C41.8066 7.152 41.6759 7.01067 41.5746 6.84C41.4732 6.66933 41.4226 6.456 41.4226 6.2C41.4226 5.816 41.5266 5.48267 41.7346 5.2C41.9479 4.91733 42.2466 4.69867 42.6306 4.544C43.0146 4.384 43.4652 4.304 43.9826 4.304C44.3612 4.304 44.7186 4.34667 45.0546 4.432C45.3906 4.512 45.6786 4.62933 45.9186 4.784L45.4306 5.776C45.2172 5.632 44.9799 5.52533 44.7186 5.456C44.4572 5.38133 44.1879 5.344 43.9106 5.344C43.6599 5.344 43.4439 5.37333 43.2626 5.432C43.0866 5.49067 42.9506 5.57333 42.8546 5.68C42.7639 5.78133 42.7186 5.89867 42.7186 6.032C42.7186 6.16533 42.7666 6.27467 42.8626 6.36C42.9639 6.44 43.0972 6.50933 43.2626 6.568C43.4279 6.62133 43.6092 6.67467 43.8066 6.728C44.0039 6.78133 44.2012 6.84267 44.3986 6.912C44.5959 6.98133 44.7772 7.06933 44.9426 7.176C45.1079 7.28267 45.2412 7.41867 45.3426 7.584C45.4439 7.744 45.4946 7.94667 45.4946 8.192C45.4946 8.576 45.3879 8.912 45.1746 9.2C44.9612 9.48267 44.6599 9.704 44.2706 9.864C43.8866 10.0187 43.4332 10.096 42.9106 10.096ZM51.0201 4.4H52.3161L51.1961 10H49.9001L51.0201 4.4ZM47.3641 10H46.0601L47.1801 4.4H48.4841L47.3641 10ZM50.4601 7.704H47.7321L47.9481 6.608H50.6761L50.4601 7.704ZM52.5211 10L53.6411 4.4H54.9451L53.8251 10H52.5211ZM55.1461 10L56.2661 4.4H58.5301C59.2287 4.4 59.7674 4.55467 60.1461 4.864C60.5301 5.168 60.7221 5.59467 60.7221 6.144C60.7221 6.61333 60.6127 7.024 60.3941 7.376C60.1754 7.72267 59.8607 7.98933 59.4501 8.176C59.0447 8.36267 58.5621 8.456 58.0021 8.456H56.1861L56.8741 7.864L56.4501 10H55.1461ZM56.8421 8.016L56.3861 7.4H58.0581C58.4847 7.4 58.8154 7.304 59.0501 7.112C59.2901 6.91467 59.4101 6.62933 59.4101 6.256C59.4101 5.984 59.3194 5.784 59.1381 5.656C58.9567 5.52267 58.7007 5.456 58.3701 5.456H56.7941L57.4821 4.824L56.8421 8.016Z" fill="white"></path></svg>